<?xml version="1.0" standalone="no"?><!DOCTYPE svg PUBLIC "-//W3C//DTD SVG 1.1//EN" "http://www.w3.org/Graphics/SVG/1.1/DTD/svg11.dtd"><svg t="1510154655646" class="icon" style="" viewBox="0 0 1024 1024" version="1.1" xmlns="http://www.w3.org/2000/svg" p-id="996" xmlns:xlink="http://www.w3.org/1999/xlink" width="128" height="128"><defs><style type="text/css"></style></defs><path d="M888.541778 357.108793l-137.122596-137.130401L631.787151 100.338556 546.511866 15.071076c-18.817382-18.825186-49.349774-18.825186-68.17496 0L136.314799 357.108793c-18.832991 18.825186-18.832991 49.349774 0 68.17496l86.055765 0 0 346.665965c0 26.622185 21.588087 48.210272 48.210272 48.210272l166.273538 0L436.854374 598.722101c0-26.622185 21.580282-48.202468 48.210272-48.202468l54.742893 0c26.62999 0 48.210272 21.580282 48.210272 48.202468l0 221.430085 166.281343 0c26.614381 0 48.210272-21.588087 48.210272-48.210272L802.509427 425.283753l86.047961 0C907.37477 406.458567 907.37477 375.933979 888.541778 357.108793z" p-id="997" fill="#1296db"></path></svg>